<svg xmlns="http://www.w3.org/2000/svg" xmlns:xlink="http://www.w3.org/1999/xlink" width="119.21" height="47.895" viewBox="0 0 119.21 47.895">
  <defs>
    <linearGradient id="linear-gradient" x1="0.42" y1="0.382" x2="1.268" y2="0.8" gradientUnits="objectBoundingBox">
      <stop offset="0" stop-color="#fff"/>
      <stop offset="1" stop-color="#ff8c45"/>
    </linearGradient>
    <filter id="Path_2440" x="0" y="0.736" width="47.159" height="47.159" filterUnits="userSpaceOnUse">
      <feOffset dy="3" input="SourceAlpha"/>
      <feGaussianBlur stdDeviation="3" result="blur"/>
      <feFlood flood-opacity="0.051"/>
      <feComposite operator="in" in2="blur"/>
      <feComposite in="SourceGraphic"/>
    </filter>
    <clipPath id="clip-path">
      <path id="Path_4591" data-name="Path 4591" d="M14.579,0A14.579,14.579,0,1,1,0,14.579,14.579,14.579,0,0,1,14.579,0Z" transform="translate(72 24.422)" fill="url(#linear-gradient)"/>
    </clipPath>
  </defs>
  <g id="Group_4716" data-name="Group 4716" transform="translate(-69.736 -18.686)">
    <text id="Global" transform="translate(130.946 49)" fill="#fff" font-size="20" font-family="SegoeUI, Segoe UI"><tspan x="0" y="0">Global</tspan></text>
    <g id="Group_4715" data-name="Group 4715">
      <g transform="matrix(1, 0, 0, 1, 69.74, 18.69)" filter="url(#Path_2440)">
        <path id="Path_2440-2" data-name="Path 2440" d="M14.579,0A14.579,14.579,0,1,1,0,14.579,14.579,14.579,0,0,1,14.579,0Z" transform="translate(9 6.74)" fill="#fff"/>
      </g>
      <path id="Path_4587" data-name="Path 4587" d="M2034.612-1858.853l6.907,5.436-6.907,5.516v5.1h-4.58l-3.009-16.053Z" transform="translate(-1944.264 1889)" fill="#fcdb72"/>
      <path id="Path_4588" data-name="Path 4588" d="M2034.612-1858.853l3.667,7.226-3.667-1.79v1.79l-5.267-3.084-2.322-4.141Z" transform="translate(-1942.264 1907)" fill="#fcdb72"/>
      <path id="Path_4589" data-name="Path 4589" d="M2048.571-1864.7l-.647,4.941-1.8,5.18,2.444,2.958,9.25-2.958Z" transform="translate(-1944.264 1893)" fill="#fcdb72"/>
      <path id="Path_4590" data-name="Path 4590" d="M2044.369-1863.98c.24.322,2.621,2.871,2.621,2.871l-2.621.753Z" transform="translate(-1944.264 1893)" fill="#fcdb72"/>
      <g id="Path_4592" data-name="Path 4592" transform="translate(74.952 21.638)" fill="none">
        <path d="M18.363,0A18.363,18.363,0,1,1,0,18.363,18.363,18.363,0,0,1,18.363,0Z" stroke="none"/>
        <path d="M 18.36330032348633 1 C 13.72538948059082 1 9.365089416503906 2.806098937988281 6.085590362548828 6.085590362548828 C 2.806098937988281 9.365089416503906 1 13.72538948059082 1 18.36330032348633 C 1 23.0012092590332 2.806098937988281 27.36151123046875 6.085590362548828 30.64101028442383 C 9.365089416503906 33.92050170898438 13.72538948059082 35.72660064697266 18.36330032348633 35.72660064697266 C 23.0012092590332 35.72660064697266 27.36151123046875 33.92050170898438 30.64101028442383 30.64101028442383 C 33.92050170898438 27.36151123046875 35.72660064697266 23.0012092590332 35.72660064697266 18.36330032348633 C 35.72660064697266 13.72538948059082 33.92050170898438 9.365089416503906 30.64101028442383 6.085590362548828 C 27.36151123046875 2.806098937988281 23.0012092590332 1 18.36330032348633 1 M 18.36330032348633 0 C 28.50506973266602 0 36.72660064697266 8.221530914306641 36.72660064697266 18.36330032348633 C 36.72660064697266 28.50506973266602 28.50506973266602 36.72660064697266 18.36330032348633 36.72660064697266 C 8.221530914306641 36.72660064697266 0 28.50506973266602 0 18.36330032348633 C 0 8.221530914306641 8.221530914306641 0 18.36330032348633 0 Z" stroke="none" fill="#fff"/>
      </g>
      <g id="Path_4593" data-name="Path 4593" transform="translate(72 18.686)" fill="none" opacity="0.492">
        <path d="M21.315,0A21.315,21.315,0,1,1,0,21.315,21.315,21.315,0,0,1,21.315,0Z" stroke="none"/>
        <path d="M 21.31532669067383 0.9999961853027344 C 18.57233619689941 0.9999961853027344 15.91192626953125 1.536994934082031 13.40798759460449 2.596065521240234 C 10.98897743225098 3.619228363037109 8.816265106201172 5.084175109863281 6.950218200683594 6.950218200683594 C 5.084175109863281 8.816265106201172 3.619228363037109 10.98897743225098 2.596065521240234 13.40798759460449 C 1.536994934082031 15.91192626953125 0.9999961853027344 18.57233619689941 0.9999961853027344 21.31532669067383 C 0.9999961853027344 24.05831718444824 1.536994934082031 26.71872711181641 2.596065521240234 29.22265625 C 3.619228363037109 31.64167785644531 5.084175109863281 33.81438446044922 6.950218200683594 35.68042755126953 C 8.816265106201172 37.54647827148438 10.98897743225098 39.01142501831055 13.40798759460449 40.03458786010742 C 15.91192626953125 41.09365844726562 18.57233619689941 41.63065719604492 21.31532669067383 41.63065719604492 C 24.05831718444824 41.63065719604492 26.71872711181641 41.09365844726562 29.22265625 40.03458786010742 C 31.64167785644531 39.01142501831055 33.81437683105469 37.54647827148438 35.68042755126953 35.68042755126953 C 37.54647827148438 33.81437683105469 39.01142501831055 31.64167785644531 40.03458786010742 29.22265625 C 41.09365844726562 26.71872711181641 41.63065719604492 24.05831718444824 41.63065719604492 21.31532669067383 C 41.63065719604492 18.57233619689941 41.09365844726562 15.91192626953125 40.03458786010742 13.40798759460449 C 39.01142501831055 10.98897743225098 37.54647827148438 8.816265106201172 35.68042755126953 6.950218200683594 C 33.81438446044922 5.084175109863281 31.64167785644531 3.619228363037109 29.22265625 2.596065521240234 C 26.71872711181641 1.536994934082031 24.05831718444824 0.9999961853027344 21.31532669067383 0.9999961853027344 M 21.31532669067383 -3.814697265625e-06 C 33.08744812011719 -3.814697265625e-06 42.63065719604492 9.543197631835938 42.63065719604492 21.31532669067383 C 42.63065719604492 33.08744812011719 33.08744812011719 42.63065719604492 21.31532669067383 42.63065719604492 C 9.543197631835938 42.63065719604492 -3.814697265625e-06 33.08744812011719 -3.814697265625e-06 21.31532669067383 C -3.814697265625e-06 9.543197631835938 9.543197631835938 -3.814697265625e-06 21.31532669067383 -3.814697265625e-06 Z" stroke="none" fill="#fff"/>
      </g>
    </g>
  </g>
</svg>
